<svg
    width="40px" height="40px" viewBox="0 0 256.000000 256.000000"
    preserveAspectRatio="xMidYMid meet">
    <g transform="translate(0.000000,256.000000) scale(0.100000,-0.100000)"
        fill="#000000" stroke="none">
        <path d="M1094 2365 c-22 -15 -33 -56 -54 -211 l-12 -80 -64 -28 -64 -28 -106
81 c-63 47 -116 81 -130 81 -48 0 -284 -235 -284 -283 0 -12 36 -67 81 -124
l81 -103 -29 -70 c-15 -38 -32 -70 -38 -70 -5 0 -66 -9 -135 -20 -167 -26
-160 -15 -160 -229 0 -129 3 -171 15 -187 12 -18 36 -24 144 -39 71 -10 133
-20 138 -24 5 -3 21 -37 37 -74 l29 -68 -77 -100 c-42 -55 -79 -106 -82 -113
-10 -26 24 -70 139 -185 84 -83 121 -114 140 -114 15 0 65 31 131 81 l107 80
62 -25 c34 -14 63 -26 65 -28 2 -1 12 -63 24 -136 12 -82 26 -141 36 -151 13
-16 36 -18 193 -18 144 0 180 3 192 15 18 17 32 76 48 201 l11 89 66 27 c37
15 70 24 76 19 6 -4 52 -39 101 -78 50 -38 97 -72 107 -76 9 -3 34 6 60 22 50
32 226 213 238 245 10 27 4 37 -86 152 -41 52 -74 97 -74 98 0 18 63 136 73
136 6 0 68 9 137 19 91 15 128 24 137 37 9 13 13 66 13 191 0 154 -2 175 -18
191 -14 14 -54 24 -145 37 -69 10 -130 21 -134 24 -5 3 -21 36 -37 73 l-28 67
81 106 c45 58 81 115 81 126 0 12 -50 71 -126 149 -101 104 -132 130 -154 130
-19 0 -60 -25 -133 -81 l-105 -80 -63 26 c-35 15 -65 28 -66 29 -1 1 -11 62
-23 136 -16 109 -24 138 -41 153 -18 15 -44 17 -188 17 -130 0 -171 -3 -187
-15z m351 -759 c58 -29 133 -103 163 -162 71 -140 42 -311 -71 -422 -153 -151
-382 -144 -527 15 -64 70 -91 143 -91 243 0 102 27 173 92 245 110 119 287
152 434 81z" />
    </g>
</svg>